<?xml version="1.0" encoding="utf-8"?>
<!-- Generator: Adobe Illustrator 18.0.0, SVG Export Plug-In . SVG Version: 6.00 Build 0)  -->
<!DOCTYPE svg PUBLIC "-//W3C//DTD SVG 1.1//EN" "http://www.w3.org/Graphics/SVG/1.1/DTD/svg11.dtd" [
	<!ENTITY st0 "fill:#FFFFFF;">
	<!ENTITY st1 "fill:none;stroke:#000000;stroke-width:4;stroke-miterlimit:10;">
	<!ENTITY st2 "fill:#FFFFFF;stroke:#FFFFFF;stroke-width:0.4025;stroke-miterlimit:10;">
	<!ENTITY st3 "fill:#333333;">
	<!ENTITY st4 "fill:#B3B3B3;">
	<!ENTITY st5 "fill:none;stroke:#000000;stroke-width:5;stroke-linecap:round;stroke-linejoin:round;stroke-miterlimit:10;">
	<!ENTITY st6 "fill:none;stroke:#000000;stroke-width:4;stroke-linecap:round;stroke-linejoin:round;stroke-miterlimit:10;">
	<!ENTITY st7 "fill:none;stroke:#000000;stroke-width:2.9792;stroke-linecap:round;stroke-linejoin:round;stroke-miterlimit:10;">
	<!ENTITY st8 "fill:none;stroke:#000000;stroke-width:30;stroke-linecap:round;stroke-linejoin:round;stroke-miterlimit:10;">
	<!ENTITY st9 "fill:none;stroke:#000000;stroke-width:20;stroke-linecap:round;stroke-linejoin:round;stroke-miterlimit:10;">
]>
<svg version="1.1" id="Layer_1" xmlns="http://www.w3.org/2000/svg" xmlns:xlink="http://www.w3.org/1999/xlink" x="0px" y="0px" viewBox="0 0 225 110" style="enable-background:new 0 0 225 110;" xml:space="preserve"><path d="M224.2,32.6C224.2,32.7,224.2,32.7,224.2,32.6c0,0.3,0,0.5,0,0.8c0,0,0,0,0,0.1c-0.2,2.4-1.4,4.5-3.1,6l-23,23 c-1.8,1.8-4.1,2.6-6.4,2.6s-4.6-0.9-6.4-2.6c-3.5-3.5-3.5-9.2,0-12.7l8.1-8.1h-21.6c-11.1,0-21.9,3.1-31.4,8.9 c-1.5,0.9-3.1,1.3-4.7,1.3c-3,0-6-1.5-7.7-4.3c-2.6-4.2-1.3-9.8,3-12.4c12.3-7.5,26.4-11.5,40.8-11.5h21.7l-7.6-7.6 c-3.5-3.5-3.5-9.2,0-12.7c3.5-3.5,9.2-3.5,12.7,0l22.9,22.9C223.3,28,224.2,30.3,224.2,32.6z M215.2,91.3h-43.4 c-21.1,0-40.8-11.3-51.5-29.4c-13.9-23.6-39.6-38.2-67-38.2H9.8c-5,0-9,4-9,9s4,9,9,9h43.4c21.1,0,40.8,11.3,51.5,29.4 c13.9,23.6,39.6,38.2,67,38.2h43.4c5,0,9-4,9-9S220.1,91.3,215.2,91.3z M84.6,82.4c-9.4,5.8-20.3,8.9-31.3,8.9H9.8c-5,0-9,4-9,9	s4,9,9,9h43.4c14.4,0,28.5-4,40.8-11.5c4.2-2.6,5.6-8.1,3-12.4C94.4,81.1,88.8,79.8,84.6,82.4z"/></svg>
