<?xml version="1.0" encoding="utf-8"?>
<!-- Generator: Adobe Illustrator 18.0.0, SVG Export Plug-In . SVG Version: 6.00 Build 0)  -->
<!DOCTYPE svg PUBLIC "-//W3C//DTD SVG 1.1//EN" "http://www.w3.org/Graphics/SVG/1.1/DTD/svg11.dtd" [
	<!ENTITY st0 "fill:#FFFFFF;">
	<!ENTITY st1 "fill:none;stroke:#000000;stroke-width:4;stroke-miterlimit:10;">
	<!ENTITY st2 "fill:#FFFFFF;stroke:#FFFFFF;stroke-width:0.4025;stroke-miterlimit:10;">
	<!ENTITY st3 "fill:#333333;">
	<!ENTITY st4 "fill:#B3B3B3;">
	<!ENTITY st5 "fill:none;stroke:#000000;stroke-width:5;stroke-linecap:round;stroke-linejoin:round;stroke-miterlimit:10;">
	<!ENTITY st6 "fill:none;stroke:#000000;stroke-width:4;stroke-linecap:round;stroke-linejoin:round;stroke-miterlimit:10;">
	<!ENTITY st7 "fill:none;stroke:#000000;stroke-width:2.9792;stroke-linecap:round;stroke-linejoin:round;stroke-miterlimit:10;">
	<!ENTITY st8 "fill:none;stroke:#000000;stroke-width:30;stroke-linecap:round;stroke-linejoin:round;stroke-miterlimit:10;">
	<!ENTITY st9 "fill:none;stroke:#000000;stroke-width:20;stroke-linecap:round;stroke-linejoin:round;stroke-miterlimit:10;">
]>
<svg version="1.1" id="Layer_1" xmlns="http://www.w3.org/2000/svg" xmlns:xlink="http://www.w3.org/1999/xlink" x="0px" y="0px" viewBox="0 0 225 110" style="enable-background:new 0 0 225 110;" xml:space="preserve"><path d="M224.2,66.5c0,23.6-19.2,42.8-42.8,42.8H43.6C20,109.3,0.8,90.1,0.8,66.5S20,23.7,43.6,23.7h30c5,0,9,4,9,9s-4,9-9,9h-30 c-13.7,0-24.8,11.1-24.8,24.8S30,91.3,43.6,91.3h137.7c13.7,0,24.8-11.1,24.8-24.8S195,41.7,181.4,41.7h-39.9l8.1,8.1 c3.5,3.5,3.5,9.2,0,12.7c-1.8,1.8-4.1,2.6-6.4,2.6s-4.6-0.9-6.4-2.6L113.3,39c-3.5-3.5-3.5-9.2,0-12.7l22.9-22.9	c3.5-3.5,9.2-3.5,12.7,0c3.5,3.5,3.5,9.2,0,12.7l-7.6,7.6c0,0,0,0,0,0h40C205,23.7,224.2,42.9,224.2,66.5z"/></svg>
