<?xml version="1.0" encoding="utf-8"?>
<!-- Generator: Adobe Illustrator 18.0.0, SVG Export Plug-In . SVG Version: 6.00 Build 0)  -->
<!DOCTYPE svg PUBLIC "-//W3C//DTD SVG 1.1//EN" "http://www.w3.org/Graphics/SVG/1.1/DTD/svg11.dtd" [
	<!ENTITY st0 "fill:#FFFFFF;">
	<!ENTITY st1 "fill:none;stroke:#000000;stroke-width:4;stroke-miterlimit:10;">
	<!ENTITY st2 "fill:#FFFFFF;stroke:#FFFFFF;stroke-width:0.4025;stroke-miterlimit:10;">
	<!ENTITY st3 "fill:#333333;">
	<!ENTITY st4 "fill:#B3B3B3;">
	<!ENTITY st5 "fill:none;stroke:#000000;stroke-width:5;stroke-linecap:round;stroke-linejoin:round;stroke-miterlimit:10;">
	<!ENTITY st6 "fill:none;stroke:#000000;stroke-width:4;stroke-linecap:round;stroke-linejoin:round;stroke-miterlimit:10;">
	<!ENTITY st7 "fill:none;stroke:#000000;stroke-width:2.9792;stroke-linecap:round;stroke-linejoin:round;stroke-miterlimit:10;">
]>
<svg version="1.1" id="Layer_1" xmlns="http://www.w3.org/2000/svg" xmlns:xlink="http://www.w3.org/1999/xlink" x="0px" y="0px"viewBox="0 0 67 83" style="enable-background:new 0 0 67 83;" xml:space="preserve"><path d="M33.5,9.8c4.4,7.4,10,12.9,15.1,17.8c7.7,7.5,13.9,13.5,13.9,23.9c0,14.2-13.5,26.6-28.8,26.6l-0.2,0l-0.1, 0C18,78.2,4.6,65.8,4.6,51.6c0-10.4,6.1-16.4,13.9-23.9C23.5,22.7,29.1,17.2,33.5,9.8 M33.5,0.8C24,24.7,0.6,29.5,0.6,51.6 c0,16.9,15.9,30.6,32.8,30.6c0,0,0.1,0,0.1,0c0,0,0.1,0,0.1,0c16.9,0,32.8-13.8,32.8-30.6C66.4,29.5,43,24.7,33.5,0.8L33.5,0.8z"/></svg>
