<?xml version="1.0" encoding="utf-8"?>
<!-- Generator: Adobe Illustrator 18.0.0, SVG Export Plug-In . SVG Version: 6.00 Build 0)  -->
<!DOCTYPE svg PUBLIC "-//W3C//DTD SVG 1.1//EN" "http://www.w3.org/Graphics/SVG/1.1/DTD/svg11.dtd" [
	<!ENTITY st0 "fill:#FFFFFF;">
	<!ENTITY st1 "fill:none;stroke:#000000;stroke-width:4;stroke-miterlimit:10;">
	<!ENTITY st2 "fill:#FFFFFF;stroke:#FFFFFF;stroke-width:0.4025;stroke-miterlimit:10;">
	<!ENTITY st3 "fill:#333333;">
	<!ENTITY st4 "fill:#B3B3B3;">
	<!ENTITY st5 "fill:none;stroke:#000000;stroke-width:5;stroke-linecap:round;stroke-linejoin:round;stroke-miterlimit:10;">
	<!ENTITY st6 "fill:none;stroke:#000000;stroke-width:4;stroke-linecap:round;stroke-linejoin:round;stroke-miterlimit:10;">
	<!ENTITY st7 "fill:none;stroke:#000000;stroke-width:2.9792;stroke-linecap:round;stroke-linejoin:round;stroke-miterlimit:10;">
	<!ENTITY st8 "fill:none;stroke:#000000;stroke-width:30;stroke-linecap:round;stroke-linejoin:round;stroke-miterlimit:10;">
	<!ENTITY st9 "fill:none;stroke:#000000;stroke-width:20;stroke-linecap:round;stroke-linejoin:round;stroke-miterlimit:10;">
	<!ENTITY st10 "fill:none;stroke:#000000;stroke-width:6;stroke-miterlimit:10;">
	<!ENTITY st11 "stroke:#000000;stroke-width:6;stroke-linecap:round;stroke-linejoin:round;stroke-miterlimit:10;">
]>
<svg version="1.1" id="Layer_1" xmlns="http://www.w3.org/2000/svg" xmlns:xlink="http://www.w3.org/1999/xlink" x="0px" y="0px" viewBox="0 0 47 45" style="enable-background:new 0 0 47 45;" xml:space="preserve"><path d="M32.9,0.2c-2.6,0-5.1,0.7-7.3,2c-0.7,0.4-1.5,0.9-2.1,1.5c-0.7-0.6-1.4-1.1-2.1-1.5c-2.2-1.3-4.7-2-7.3-2 C6.2,0.2,0.2,6.5,0.2,14.8c0,16,21.3,29.1,22.2,29.7c0.3,0.2,0.7,0.3,1,0.3c0.4,0,0.7-0.1,1-0.3c0.9-0.6,22.2-13.7,22.2-29.7 C46.8,6.5,40.8,0.2,32.9,0.2z M23.5,40.4C19.3,37.6,4.2,26.7,4.2,14.8c0-6,4.2-10.6,9.9-10.6c1.9,0,3.7,0.5,5.3,1.4 c1,0.6,1.9,1.3,2.6,2.1c0.8,0.9,2.2,0.9,3,0c0.8-0.8,1.6-1.6,2.6-2.1c1.6-0.9,3.4-1.4,5.3-1.4c5.6,0,9.9,4.6,9.9,10.6 C42.8,26.7,27.6,37.6,23.5,40.4z"/></svg>
